<svg width="100" height="100" viewBox="0 0 100 100" xmlns="http://www.w3.org/2000/svg"><path d="M 5.00 74.47 L 8.16 77.11 L 11.43 79.50 L 14.80 81.66 L 18.25 83.57 L 21.77 85.24 L 25.33 86.66 L 28.93 87.84 L 32.54 88.79 L 36.16 89.49 L 39.76 89.96 L 43.33 90.19 L 46.86 90.20 L 50.34 90.00 L 53.75 89.58 L 57.08 88.96 L 60.32 88.14 L 63.46 87.13 L 66.49 85.94 L 69.39 84.59 L 72.17 83.07 L 74.81 81.41 L 77.30 79.61 L 79.65 77.68 L 81.84 75.64 L 83.87 73.50 L 85.73 71.26 L 87.42 68.95 L 88.95 66.56 L 90.30 64.12 L 91.48 61.63 L 92.49 59.11 L 93.33 56.56 L 94.00 54.00 L 94.49 51.45 L 94.82 48.90 L 94.99 46.37 L 95.00 43.87 L 94.85 41.41 L 94.56 38.99 L 94.12 36.63 L 93.54 34.34 L 92.82 32.12 L 91.98 29.98 L 91.02 27.92 L 89.95 25.95 L 88.77 24.09 L 87.50 22.32 L 86.14 20.66 L 84.69 19.11 L 83.17 17.68 L 81.59 16.36 L 79.95 15.16 L 78.26 14.08 L 76.53 13.12 L 74.77 12.28 L 72.99 11.57 L 71.19 10.98 L 69.38 10.51 L 67.57 10.15 L 65.76 9.92 L 63.97 9.80 L 62.20 9.80 L 60.46 9.90 L 58.75 10.11 L 57.08 10.42 L 55.46 10.83 L 53.89 11.34 L 52.37 11.93 L 50.91 12.61 L 49.52 13.37 L 48.20 14.20 L 46.95 15.10 L 45.78 16.07 L 44.68 17.09 L 43.66 18.17 L 42.73 19.29 L 41.88 20.45 L 41.12 21.64 L 40.44 22.87 L 39.85 24.11 L 39.34 25.38 L 38.92 26.65 L 38.59 27.93 L 38.34 29.21 L 38.17 30.49 L 38.09 31.76 L 38.08 33.01 L 38.16 34.24 L 38.31 35.45 L 38.53 36.63 L 38.82 37.78 L 39.18 38.90 L 39.60 39.97 L 40.08 41.00 L 40.61 41.98 L 41.20 42.92 L 41.84 43.81 L 42.53 44.64 L 43.25 45.41 L 44.01 46.13 L 44.80 46.79 L 45.62 47.39 L 46.47 47.93 L 47.34 48.41 L 48.22 48.83 L 49.11 49.19 L 50.02 49.49 L 50.92 49.72 L 51.83 49.90 L 52.73 50.02 L 53.63 50.08 L 54.52 50.08 L 55.39 50.03 L 56.25 49.92 L 57.08 49.77 L 57.90 49.56 L 58.68 49.31 L 59.44 49.01 L 60.17 48.67 L 60.87 48.29 L 61.53 47.87 L 62.16 47.42 L 62.75 46.94 L 63.30 46.43 L 63.80 45.89 L 64.27 45.33 L 64.70 44.74 L 65.08 44.15 L 65.42 43.53 L 65.72 42.91 L 65.97 42.27 L 66.18 41.64 L 66.35 40.99 L 66.47 40.35 L 66.56 39.71 L 66.60 39.08 L 66.60 38.45 L 66.56 37.83 L 66.49 37.23 L 66.38 36.63 L 66.23 36.06 L 66.05 35.50 L 65.84 34.96 L 65.60 34.45 L 65.33 33.95 L 65.04 33.48 L 64.72 33.04 L 64.37 32.62 L 64.01 32.24 L 63.63 31.88 L 63.23 31.54 L 62.82 31.24 L 62.40 30.97 L 61.96 30.73 L 61.52 30.52 L 61.07 30.34 L 60.62 30.19 L 60.17 30.08 L 59.71 29.99 L 59.26 29.93 L 58.81 29.90 L 58.37 29.90 L 57.93 29.92 L 57.50 29.98 L 57.08 30.05 L 56.67 30.16 L 56.28 30.28 L 55.90 30.43 L 55.53 30.60 L 55.18 30.79 L 54.85 31.00 L 54.54 31.23 L 54.24 31.47 L 53.97 31.73 L 53.71 32.00 L 53.48 32.28 L 53.27 32.57 L 53.07 32.87 L 52.90 33.18 L 52.76 33.49 L 52.63 33.81 L 52.52 34.13 L 52.44 34.45 L 52.38 34.77 L 52.34 35.09 L 52.31 35.41 L 52.31 35.72 L 52.33 36.03 L 52.37 36.34 L 52.42 36.63 L 52.50 36.92 L 52.59 37.20 L 52.69 37.47 L 52.81 37.73 L 52.95 37.98 L 53.10 38.21 L 53.26 38.43 L 53.43 38.64 L 53.61 38.84 L 53.80 39.02 L 54.00 39.18 L 54.21 39.33 L 54.42 39.47 L 54.64 39.59 L 54.86 39.70 L 55.08 39.79 L 55.31 39.86 L 55.54 39.92 L 55.76 39.96 L 55.99 39.99 L 56.22 40.01 L 56.44 40.01 L 56.66 40.00 L 56.87 39.97 L 57.08 39.93 L 57.29 39.88 L 57.48 39.82 L 57.67 39.74 L 57.86 39.66 L 58.03 39.56 L 58.20 39.45 L 58.36 39.34 L 58.50 39.22 L 58.64 39.09 L 58.77 38.96 L 58.89 38.82 L 58.99 38.67 L 59.09 38.52 L 59.17 38.37 L 59.25 38.21 L 59.31 38.05 L 59.37 37.89 L 59.41 37.73 L 59.44 37.57 L 59.46 37.41 L 59.47 37.25 L 59.47 37.09 L 59.46 36.93 L 59.44 36.78 L 59.42 36.63" stroke="#3e2723" stroke-width="4" fill="none" stroke-linecap="round" /><circle cx="59.42" cy="36.63" r="4" fill="#3e2723" /></svg>